<svg xmlns="http://www.w3.org/2000/svg" viewBox="0 0 1661.00 881.23" data-guides="{&quot;vertical&quot;:[],&quot;horizontal&quot;:[]}"><defs/><path fill="rgb(0, 0, 0)" stroke="none" fill-opacity="1" stroke-width="1" stroke-opacity="1" id="tSvga90c6e9590" title="Path 27" d="M823.5302 4.4221C810.3218 8.4231 796.3429 15.1246 787.8675 21.426C779.2821 27.9275 772.1275 36.5295 762.7716 51.833C752.425 68.7369 750.884 70.3372 741.1978 73.738C736.795 75.2384 729.6405 78.239 725.3477 80.2395C722.7794 81.4398 720.2111 82.6401 717.6428 83.8403C719.4407 81.8399 721.2385 79.8394 723.0363 77.839C731.5117 68.4368 738.6662 53.9335 743.069 37.6297C747.9121 19.6256 748.6826 15.3246 747.0315 15.3246C745.0503 15.3246 736.9051 19.3256 732.062 22.6263C718.7435 31.8284 709.2775 43.4311 704.6546 56.134C703.1136 60.3349 700.582 70.1372 699.041 77.839C697.5 85.5407 695.6288 93.0424 694.9684 94.6428C694.308 96.1431 690.7858 99.5439 687.0434 102.2445C683.4111 104.9452 675.7062 111.1466 669.9825 116.0477C662.2776 122.6492 659.746 125.3498 660.2964 126.6501C661.6172 129.6508 664.479 128.4505 672.8443 121.3489C681.76 113.7472 695.849 104.7451 700.3618 103.7449C704.8747 102.6446 715.9918 105.0452 730.411 109.9463C751.8746 117.248 755.3969 117.8481 772.7879 117.7481C786.987 117.7481 788.9682 117.448 798.6544 114.5474C804.4881 112.847 810.1017 110.7465 811.3124 109.8463C813.5138 108.446 813.5138 108.3459 810.8722 107.6458C809.3312 107.3457 802.6169 104.5451 796.0127 101.5444C768.9355 89.4416 757.2681 86.741 736.4648 87.6412C732.062 87.8079 727.6592 87.9746 723.2564 88.1413C725.6413 87.0077 728.0261 85.8741 730.411 84.7405C734.3735 82.9401 741.528 80.0395 746.3711 78.239C754.2962 75.4384 755.9472 75.1383 763.432 75.6385C777.7411 76.6387 796.0127 83.4402 796.6731 88.1413C797.1134 91.5421 802.0666 94.7428 805.5888 93.9426C809.7715 93.0424 811.8628 90.6419 811.8628 86.941C811.8628 81.9399 807.1298 78.8392 802.0666 80.5396C800.0853 81.2397 797.4436 80.6396 790.5092 77.939C785.5561 76.0385 778.6216 73.738 775.0994 72.9378C771.5772 72.0376 768.3851 71.2374 768.165 70.9374C767.9448 70.7373 771.0268 70.0372 775.0994 69.337C789.0783 66.9365 810.8722 70.4373 818.7972 76.4386C820.7785 77.939 824.8511 82.34 827.7129 86.1409C833.6567 94.2427 837.8393 96.6433 844.8838 96.1431C848.8463 95.9431 850.0571 95.343 851.488 93.0424C853.029 90.5419 852.9189 90.0417 850.9377 86.641C849.7269 84.5405 846.755 81.6398 844.2234 80.0395C838.3897 76.3386 811.3124 67.5366 801.186 66.0363C796.7832 65.4361 793.1509 64.6359 793.1509 64.2358C793.1509 63.0356 823.4201 59.2347 835.0876 59.0346C848.8463 58.8346 847.5255 58.0344 860.4037 72.4377C872.5114 85.9408 879.776 91.6421 892.7643 97.3434C902.2303 101.5444 922.0429 107.3457 926.996 107.3457C929.4176 107.3457 928.8672 106.1454 922.9235 97.7435C911.5862 81.9399 895.516 69.9371 876.2538 62.5355C873.3186 61.4352 870.3834 60.3349 867.4482 59.2347C871.4841 59.4014 875.52 59.5681 879.5559 59.7348C891.4434 60.1349 906.7432 62.4354 911.9165 64.4359C913.2373 64.936 918.5207 68.2368 923.4738 71.8376C939.6541 83.2402 956.3847 89.8417 975.2067 92.2423C989.5158 94.0427 1007.7874 93.2425 1007.7874 90.8419C1007.7874 90.1418 1002.5041 85.5407 996.01 80.4395C983.2418 70.5373 970.0334 63.7357 957.7056 60.735C953.4129 59.6348 943.3965 58.8346 928.537 58.3345C916.0991 57.9344 905.8626 57.5343 905.7525 57.4343C904.2115 56.8341 906.3029 55.4338 910.1553 54.4336C912.6869 53.7334 918.8509 51.2329 923.804 48.8323C931.5089 45.1315 933.3801 44.6314 937.6728 45.0314C941.8555 45.5316 942.7361 45.2315 944.3871 43.231C948.3496 38.0298 945.3777 31.3283 938.9937 31.3283C935.1412 31.3283 930.7384 34.9291 930.7384 38.2299C930.7384 40.5304 917.1998 48.0321 908.7244 50.4327C897.2771 53.6334 885.2795 54.5336 866.6777 53.3333C857.5419 52.8332 849.837 52.2331 849.7269 52.033C849.5067 51.833 853.7995 50.9328 859.1929 50.0326C883.1882 45.9316 902.6706 36.5295 916.4293 22.5263C924.5745 14.2244 924.3544 13.9243 909.0546 14.6245C894.6355 15.3246 878.235 18.6254 869.5395 22.6263C862.7151 25.827 853.2491 32.2285 842.5723 41.0305C829.9143 51.3329 826.282 52.8332 801.7363 57.2342C790.0689 59.3347 780.3828 60.9351 780.2727 60.9351C780.1626 60.8351 783.7949 58.7346 788.4179 56.334C799.645 50.3327 811.4225 41.0305 819.0173 32.1285C825.2913 24.8268 836.0782 9.0232 838.1695 4.0221C839.2702 1.5215 839.1602 1.3214 836.2983 1.3214C834.6473 1.3214 828.9236 2.7218 823.5302 4.4221ZM827.1625 12.0239C814.0642 31.8284 800.1954 44.4313 780.6029 54.3336C771.6872 58.9346 773.3383 56.6341 789.8488 41.4306C797.2235 34.7291 803.0572 28.9278 802.727 28.7277C801.8464 27.8275 786.7668 38.4299 777.4109 46.4318C772.1275 51.0328 768.0549 54.1335 768.3851 53.3333C768.7153 52.5332 771.5772 48.0321 774.7692 43.5311C781.9237 33.0287 794.4717 22.0262 805.1485 16.925C812.193 13.6243 826.282 8.4231 828.7035 8.323C829.2539 8.323 828.4834 10.0234 827.1625 12.0239ZM904.5418 25.3269C900.7994 28.5277 893.865 32.9287 889.132 35.1292C880.3264 39.3301 862.495 44.8314 860.1835 44.1312C859.413 43.9312 862.495 42.0308 867.0079 39.9303C880.2163 33.6288 890.4528 27.9275 889.132 27.5274C887.8111 27.1273 865.4669 35.0292 857.5419 38.53C856.0743 39.1968 854.6067 39.8636 853.1391 40.5304C854.2398 39.4635 855.3405 38.3966 856.4412 37.3297C861.1742 32.8287 869.5395 28.0276 878.235 24.9268C885.1694 22.4263 900.6893 19.6256 908.1741 19.4256C911.3661 19.4256 911.3661 19.5256 904.5418 25.3269ZM738.5561 33.4288C733.3829 53.2333 726.6686 66.4363 716.6522 76.8387C715.0379 78.5058 713.4235 80.1728 711.8091 81.8399C713.2034 78.5058 714.5976 75.1717 715.9918 71.8376C723.6967 53.6334 727.1089 44.3313 725.8981 44.3313C725.3477 44.3313 722.9262 48.0321 720.5047 52.5332C718.1932 57.1342 713.7904 65.6362 710.8185 71.5375C707.7365 77.5389 704.9848 82.34 704.7646 82.34C704.1042 82.34 706.856 68.7369 709.0574 60.9351C712.5796 48.3322 722.1557 35.6293 734.0433 27.7275C737.5655 25.3269 740.6475 23.3265 740.8676 23.3265C740.9777 23.3265 739.9871 27.9275 738.5561 33.4288ZM958.2559 66.4363C968.7126 69.0369 976.4175 72.7378 987.3144 80.5396C998.1013 88.1413 997.3308 89.0415 980.9304 87.4412C966.6213 86.0408 955.3941 83.2402 946.1482 78.7392C937.6728 74.6382 926.3356 67.3365 928.3169 67.3365C929.1974 67.3365 938.003 69.8371 948.0194 72.8378C958.0358 75.9385 966.8414 78.239 967.5018 78.039C969.1529 77.5389 956.715 71.8376 944.4972 67.6366C939.1037 65.7362 934.3707 63.9358 934.0405 63.6357C932.8298 62.4354 950.551 64.4359 958.2559 66.4363ZM879.3357 69.437C893.975 76.1386 906.6331 85.7408 914.2279 95.7431C915.4387 97.3768 916.6495 99.0105 917.8602 100.6442C916.7962 100.4108 915.7322 100.1774 914.6682 99.944C908.6144 98.5437 895.0757 93.2425 888.9118 89.8417C883.5184 86.841 873.502 78.239 867.4482 71.4375C864.6964 68.3368 865.3568 68.7369 882.7479 79.9394C890.6729 85.0406 897.6073 88.9415 898.1577 88.6414C899.4785 87.8412 891.4434 81.1397 879.1156 72.6378C868.8791 65.6362 868.9891 64.736 879.3357 69.437ZM764.5327 95.343C774.6591 97.9436 798.3242 108.0459 796.8933 109.2461C795.2422 110.6465 785.7762 112.3469 776.7505 113.047C765.083 113.8472 754.9566 112.0468 734.8138 105.6453C729.1268 103.8116 723.4399 101.9778 717.7529 100.1441C721.6054 100.3108 725.4578 100.4775 729.3103 100.6442C736.1346 100.9442 747.3618 102.4446 756.8278 104.345C765.5233 106.0454 773.7786 107.2457 774.9893 107.1457C781.3734 106.2455 735.8044 95.343 725.788 95.343C720.9449 95.343 722.3759 94.5428 729.4203 93.4425C738.0058 92.0422 754.9566 92.9424 764.5327 95.343Z" style=""/><path fill="rgb(0, 0, 0)" stroke="none" fill-opacity="1" stroke-width="1" stroke-opacity="1" id="tSvg6cc022cba6" title="Path 54" d="M1530.919 597.6728C1522.0876 600.3467 1512.7409 604.8262 1507.0739 609.0386C1501.3332 613.3847 1496.5491 619.1353 1490.2926 629.3663C1483.3736 640.6671 1482.3432 641.737 1475.8669 644.01C1472.9231 645.0127 1468.1394 647.0184 1465.2691 648.3556C1463.5519 649.1578 1461.8347 649.9601 1460.1174 650.7624C1461.3196 649.4251 1462.5217 648.0878 1463.7239 646.7504C1469.3912 640.465 1474.1758 630.7687 1477.1207 619.8687C1480.3602 607.8318 1480.8756 604.9562 1479.7718 604.9561C1478.4471 604.956 1473.001 607.6303 1469.7627 609.8368C1460.8574 615.9881 1454.5276 623.7447 1451.4357 632.2374C1450.4051 635.046 1448.7117 641.5994 1447.6809 646.7486C1446.65 651.8977 1443.5615 656.1104 1443.1198 657.1804C1442.6782 658.1834 1442.1598 661.2596 1439.6574 663.0649C1437.2287 664.8702 1429.3524 665.7563 1425.5253 669.0328C1420.3733 673.4458 1418.6805 675.2512 1419.0483 676.1206C1419.4162 676.99 1421.8447 677.3247 1427.4382 672.5773C1433.3998 667.4955 1446.453 667.0112 1449.4704 666.3428C1452.4877 665.6075 1459.0119 664.9395 1468.6521 668.2175C1483.0019 673.1009 1485.3568 673.5025 1496.9844 673.437C1506.4777 673.4381 1507.8024 673.2376 1514.2787 671.2989C1518.1792 670.1625 1521.9325 668.7587 1522.7421 668.1568C1524.2141 667.2208 1524.2141 667.1539 1522.4479 666.6856C1521.4176 666.4849 1516.9288 664.6119 1512.5135 662.6051C1494.4108 654.5113 1486.6103 652.7049 1472.7014 653.3051C1469.7577 653.4162 1466.814 653.5273 1463.8703 653.6385C1465.4648 652.8807 1467.0595 652.123 1468.654 651.3653C1471.3034 650.1619 1476.0872 648.2231 1479.3254 647.0197C1484.6242 645.1479 1485.7281 644.9474 1490.7323 645.2823C1500.2991 645.9521 1512.5149 650.501 1512.9561 653.6441C1513.2502 655.9179 1516.5615 658.0582 1518.9166 657.5235C1521.7131 656.9219 1523.1115 655.3172 1523.1118 652.8428C1523.1122 649.4991 1519.948 647.4257 1516.5626 648.5621C1515.238 649.0301 1513.4718 648.6287 1508.8357 646.8225C1505.5242 645.5515 1500.8881 644.0129 1498.5333 643.4776C1496.1784 642.8755 1494.0443 642.3402 1493.8971 642.1396C1493.7499 642.0059 1495.8106 641.5379 1498.5335 641.0702C1507.8799 639.4663 1522.4508 641.8085 1527.749 645.8216C1529.0735 646.8248 1531.796 649.7676 1533.7091 652.309C1537.6825 657.7263 1540.4788 659.3316 1545.1887 658.9977C1547.838 658.8643 1548.6475 658.4631 1549.6045 656.9252C1550.6349 655.2534 1550.5614 654.9191 1549.237 652.6452C1548.4276 651.2408 1546.4408 649.3012 1544.7484 648.231C1540.8483 645.7562 1522.7454 639.8693 1515.9751 638.8653C1513.0314 638.4638 1510.6029 637.9285 1510.6029 637.661C1510.603 636.8585 1530.8411 634.3197 1538.6419 634.1868C1547.8409 634.0541 1546.9578 633.519 1555.567 643.1499C1563.661 652.1788 1568.5177 655.9911 1577.2011 659.8039C1583.5296 662.6133 1596.7757 666.4936 1600.0874 666.494C1601.7064 666.4942 1601.3385 665.6916 1597.3652 660.0738C1589.7865 649.5068 1579.043 641.4807 1566.165 636.5305C1564.2026 635.7947 1562.2402 635.0589 1560.2779 634.3231C1562.9762 634.4348 1565.6746 634.5466 1568.3729 634.6584C1576.3209 634.9268 1586.5499 636.466 1590.0086 637.8039C1590.8916 638.1384 1594.4238 640.3456 1597.7352 642.7534C1608.5523 650.3784 1619.7378 654.7933 1632.3218 656.3997C1641.8886 657.6045 1654.1049 657.071 1654.1051 655.466C1654.1051 654.9979 1650.5731 651.9213 1646.2316 648.5102C1637.6957 641.8888 1628.8652 637.3403 1620.6231 635.3331C1617.7531 634.5972 1611.0563 634.0614 1601.1215 633.7259C1592.8056 633.4575 1585.9616 633.1892 1585.888 633.1223C1584.8578 632.7209 1586.2561 631.7848 1588.8319 631.1164C1590.5246 630.6485 1594.6459 628.9771 1597.9577 627.3725C1603.1095 624.8988 1604.3606 624.5645 1607.2306 624.8324C1610.0271 625.1671 1610.6158 624.9665 1611.7199 623.6292C1614.3696 620.152 1612.3831 615.6713 1608.1147 615.6708C1605.5391 615.6705 1602.5951 618.0776 1602.5948 620.2845C1602.5947 621.8225 1593.5423 626.837 1587.8755 628.4413C1580.2217 630.5804 1572.2002 631.1814 1559.7632 630.3774C1553.6551 630.0424 1548.5037 629.6405 1548.4301 629.5067C1548.283 629.373 1551.1531 628.7715 1554.7592 628.17C1570.8025 625.43 1583.829 619.1454 1593.0291 609.7842C1598.4756 604.2343 1598.3284 604.0336 1588.0991 604.5006C1578.4585 604.9675 1567.493 607.1731 1561.6789 609.8474C1557.116 611.9868 1550.7866 616.266 1543.6475 622.1501C1535.1836 629.0371 1532.755 630.0399 1516.3437 632.9805C1508.5428 634.3839 1502.0666 635.4532 1501.9929 635.4532C1501.9194 635.3863 1504.3481 633.9822 1507.4391 632.3776C1514.946 628.366 1522.821 622.1477 1527.8995 616.1965C1532.0949 611.3152 1539.3081 600.75 1540.7067 597.4064C1541.4428 595.7347 1541.3692 595.6009 1539.4559 595.6007C1538.3519 595.6005 1534.5251 596.5363 1530.919 597.6728ZM1533.3469 602.7555C1524.5879 615.9955 1515.3144 624.4205 1502.2143 631.0395C1496.253 634.115 1497.357 632.5771 1508.397 622.4135C1513.3281 617.9336 1517.2289 614.0553 1517.0082 613.9215C1516.4196 613.3196 1506.3367 620.4071 1500.0807 625.7562C1496.548 628.832 1493.8248 630.9048 1494.0457 630.3698C1494.2665 629.8348 1496.1802 626.8258 1498.3147 623.8167C1503.099 616.7955 1511.4893 609.4403 1518.6282 606.0306C1523.3383 603.8243 1532.7584 600.3479 1534.3775 600.2813C1534.7454 600.2813 1534.2301 601.4181 1533.3469 602.7555ZM1585.081 611.6557C1582.5786 613.7953 1577.9419 616.7372 1574.7773 618.2081C1568.8897 621.0161 1556.9674 624.6928 1555.422 624.2245C1554.9069 624.0908 1556.9676 622.8203 1559.985 621.4163C1568.8165 617.2043 1575.661 613.3933 1574.7779 613.1257C1573.8949 612.8581 1558.9551 618.1394 1553.6562 620.4794C1552.6749 620.9251 1551.6937 621.3708 1550.7124 621.8165C1551.4484 621.1033 1552.1844 620.3901 1552.9204 619.6768C1556.0852 616.6679 1561.6785 613.4586 1567.4926 611.3861C1572.129 609.7148 1582.5057 607.8436 1587.5099 607.7104C1589.6441 607.7106 1589.6441 607.7775 1585.081 611.6557ZM1474.1038 617.0597C1470.6434 630.3003 1466.1533 639.1271 1459.4557 646.0812C1458.3762 647.1956 1457.2967 648.3101 1456.2172 649.4245C1457.1496 647.1955 1458.082 644.9664 1459.0144 642.7374C1464.1673 630.567 1466.4494 624.348 1465.6399 624.3479C1465.2719 624.3479 1463.6526 626.822 1462.0332 629.8311C1460.4874 632.9072 1457.5431 638.5911 1455.5557 642.5364C1453.4946 646.5486 1451.6544 649.7584 1451.5073 649.7584C1451.0658 649.7583 1452.9066 640.6636 1454.379 635.4477C1456.735 627.0219 1463.1384 618.5296 1471.0869 613.2475C1473.4421 611.6428 1475.5028 610.3055 1475.65 610.3055C1475.7235 610.3055 1475.0609 613.3817 1474.1038 617.0597ZM1620.9906 639.145C1627.9816 640.8845 1633.1328 643.3595 1640.4178 648.5764C1647.6292 653.6597 1647.114 654.2615 1636.1489 653.1902C1626.5821 652.2529 1619.076 650.3796 1612.8946 647.3695C1607.2283 644.627 1599.6489 639.7444 1600.9735 639.7445C1601.5623 639.7446 1607.4495 641.4171 1614.1461 643.4241C1620.8427 645.498 1626.7299 647.0367 1627.1715 646.9031C1628.2754 646.5688 1619.9599 642.756 1611.7915 639.9464C1608.1857 638.6754 1605.0214 637.4713 1604.8006 637.2707C1603.9912 636.4681 1615.8394 637.8069 1620.9906 639.145ZM1568.225 641.1451C1578.0122 645.6267 1586.4745 652.0476 1591.5516 658.7356C1592.361 659.828 1593.1704 660.9203 1593.9798 662.0127C1593.2684 661.8566 1592.557 661.7005 1591.8457 661.5444C1587.7982 660.6077 1578.7468 657.0623 1574.626 654.7881C1571.0201 652.7815 1564.324 647.0295 1560.2769 642.4817C1558.4374 640.4083 1558.8789 640.6759 1570.5055 648.1671C1575.8038 651.5783 1580.4398 654.1869 1580.8078 653.9863C1581.6909 653.4514 1576.3192 648.9703 1568.0776 643.285C1561.2341 638.6031 1561.3077 638.0012 1568.225 641.1451ZM1491.4667 658.4565C1498.2369 660.196 1514.0584 666.9521 1513.1016 667.7545C1511.9977 668.6906 1505.6686 669.8267 1499.634 670.2942C1491.8332 670.8283 1485.0629 669.6238 1471.5961 665.3423C1467.794 664.1158 1463.9919 662.8894 1460.1898 661.6629C1462.7654 661.7746 1465.3412 661.8864 1467.9169 661.9981C1472.4796 662.1993 1479.9858 663.2033 1486.3145 664.4746C1492.1282 665.6121 1497.6475 666.4153 1498.457 666.3485C1502.7254 665.7471 1472.2592 658.4543 1465.5623 658.4535C1462.3243 658.4532 1463.281 657.9183 1467.991 657.1832C1473.7313 656.2477 1485.0643 656.8509 1491.4667 658.4565Z" style=""/><path fill="rgb(0, 0, 0)" stroke="none" fill-opacity="1" stroke-width="1" stroke-opacity="1" id="tSvg248e423090" title="Path 58" d="M124.186 880.032C133.0174 877.3581 142.364 872.8786 148.0311 868.6662C153.7718 864.3201 158.5559 858.5694 164.8124 848.3385C171.7314 837.0376 172.7618 835.9678 179.2381 833.6948C182.1819 832.692 186.9656 830.6863 189.8358 829.3492C191.5531 828.5469 193.2703 827.7446 194.9876 826.9423C193.7854 828.2797 192.5833 829.617 191.3811 830.9544C185.7138 837.2398 180.9292 846.936 177.9842 857.8361C174.7448 869.873 174.2294 872.7485 175.3333 872.7487C176.6579 872.7488 182.104 870.0745 185.3423 867.868C194.2476 861.7167 200.5774 853.9601 203.6693 845.4674C204.6998 842.6588 206.3933 836.1054 207.4241 830.9563C208.455 825.807 211.5435 821.5944 211.9852 820.5245C212.4268 819.5214 212.9452 816.4452 215.4475 814.6399C217.8763 812.8346 225.7526 811.9484 229.5797 808.672C234.7317 804.259 236.4245 802.4536 236.0567 801.5842C235.6888 800.7147 233.2603 800.3801 227.6667 805.1275C221.7052 810.2092 208.652 810.6936 205.6346 811.362C202.6172 812.0973 196.0931 812.7653 186.4529 809.4872C172.103 804.6039 169.7482 804.2023 158.1206 804.2678C148.6273 804.2667 147.3026 804.4672 140.8263 806.4059C136.9258 807.5423 133.1725 808.9461 132.3629 809.548C130.8909 810.484 130.8909 810.5508 132.6571 811.0192C133.6874 811.2199 138.1762 813.0929 142.5915 815.0997C160.6942 823.1934 168.4947 824.9999 182.4036 824.3996C185.3473 824.2885 188.291 824.1775 191.2347 824.0663C189.6401 824.8241 188.0455 825.5818 186.451 826.3395C183.8016 827.5429 179.0178 829.4818 175.7796 830.6851C170.4808 832.5569 169.3769 832.7574 164.3727 832.4225C154.8058 831.7527 142.5901 827.2038 142.1489 824.0607C141.8548 821.7869 138.5434 819.6466 136.1884 820.1813C133.3918 820.7829 131.9935 822.3876 131.9932 824.862C131.9928 828.2056 135.157 830.2791 138.5423 829.1427C139.867 828.6747 141.6332 829.0761 146.2693 830.8823C149.5808 832.1533 154.2169 833.6919 156.5717 834.2272C158.9266 834.8293 161.0607 835.3646 161.2079 835.5652C161.3551 835.6989 159.2944 836.1668 156.5714 836.6346C147.2251 838.2386 132.6542 835.8962 127.356 831.8832C126.0315 830.88 123.309 827.9371 121.3958 825.3958C117.4225 819.9785 114.6262 818.3732 109.9163 818.707C107.267 818.8405 106.4574 819.2416 105.5005 820.7796C104.4701 822.4514 104.5436 822.7857 105.868 825.0596C106.6773 826.464 108.6641 828.4036 110.3566 829.4738C114.2567 831.9486 132.3596 837.8355 139.1299 838.8395C142.0735 839.241 144.502 839.7763 144.502 840.0438C144.502 840.8463 124.2638 843.3851 116.4631 843.518C107.2641 843.6507 108.1472 844.1858 99.538 834.5549C91.444 825.526 86.5873 821.7137 77.9039 817.9009C71.5754 815.0915 58.3293 811.2112 55.0176 811.2108C53.3986 811.2106 53.7664 812.0132 57.7398 817.631C65.3185 828.1979 76.062 836.2241 88.94 841.1742C90.9024 841.91 92.8648 842.6459 94.8271 843.3817C92.1287 843.2699 89.4304 843.1582 86.7321 843.0464C78.7841 842.778 68.5551 841.2388 65.0964 839.9009C64.2134 839.5664 60.6812 837.3592 57.3698 834.9513C46.5527 827.3264 35.3672 822.9114 22.7832 821.3051C13.2163 820.1002 1.0001 820.6338 0.9999 822.2388C0.9998 822.7069 4.5319 825.7835 8.8734 829.1946C17.4093 835.816 26.2398 840.3645 34.4819 842.3717C37.3519 843.1076 44.0487 843.6433 53.9835 843.9788C62.2994 844.2473 69.1434 844.5156 69.217 844.5825C70.2472 844.9839 68.8489 845.9199 66.2731 846.5884C64.5804 847.0563 60.4591 848.7277 57.1472 850.3323C51.9955 852.806 50.7444 853.1402 47.8744 852.8724C45.0779 852.5377 44.4892 852.7382 43.3851 854.0756C40.7354 857.5528 42.7219 862.0335 46.9902 862.034C49.5659 862.0343 52.5099 859.6272 52.5101 857.4203C52.5103 855.8823 61.5627 850.8678 67.2294 849.2635C74.8833 847.1244 82.9048 846.5234 95.3418 847.3274C101.4499 847.6625 106.6013 848.0642 106.6749 848.1981C106.822 848.3318 103.9519 848.9333 100.3458 849.5348C84.3025 852.2748 71.276 858.5593 62.0759 867.9206C56.6294 873.4705 56.7766 873.6712 67.0059 873.2042C76.6466 872.7373 87.6119 870.5317 93.4261 867.8574C97.989 865.718 104.3184 861.4387 111.4574 855.5547C119.9213 848.6676 122.35 847.6649 138.7613 844.7243C146.5622 843.3208 153.0384 842.2516 153.112 842.2516C153.1856 842.3185 150.7569 843.7226 147.6659 845.3272C140.159 849.3387 132.2839 855.5571 127.2054 861.5083C123.0101 866.3896 115.7969 876.9548 114.3982 880.2984C113.6622 881.9701 113.7357 882.1039 115.6491 882.1041C116.753 882.1042 120.5799 881.1685 124.186 880.032ZM121.7581 874.9493C130.5171 861.7093 139.7906 853.2843 152.8907 846.6653C158.852 843.5898 157.748 845.1277 146.7081 855.2913C141.7769 859.7712 137.876 863.6495 138.0968 863.7833C138.6854 864.3852 148.7683 857.2977 155.0243 851.9486C158.557 848.8727 161.2801 846.8 161.0593 847.335C160.8385 847.8699 158.9248 850.879 156.7903 853.8881C152.006 860.9093 143.6156 868.2645 136.4768 871.6742C131.7667 873.8805 122.3466 877.3569 120.7275 877.4235C120.3595 877.4235 120.8748 876.2867 121.7581 874.9493ZM70.024 866.0491C72.5264 863.9095 77.163 860.9676 80.3276 859.4967C86.2153 856.6886 98.1376 853.0119 99.683 853.4802C100.1982 853.614 98.1374 854.8845 95.12 856.2885C86.2885 860.5004 79.4439 864.3114 80.3271 864.5791C81.2101 864.8467 96.1498 859.5654 101.4488 857.2254C102.43 856.7797 103.4113 856.3339 104.3926 855.8883C103.6566 856.6014 102.9206 857.3147 102.1846 858.028C99.0198 861.0369 93.4265 864.2463 87.6125 866.3187C82.976 867.99 72.5992 869.8612 67.595 869.9944C65.4608 869.9941 65.4608 869.9272 70.024 866.0491ZM181.0012 860.6451C184.4615 847.4045 188.9517 838.5777 195.6493 831.6236C196.7288 830.5092 197.8083 829.3947 198.8877 828.2803C197.9553 830.5093 197.023 832.7384 196.0906 834.9674C190.9377 847.1378 188.6556 853.3567 189.4651 853.3569C189.8331 853.3569 191.4523 850.8828 193.0717 847.8737C194.6176 844.7976 197.5619 839.1137 199.5492 835.1683C201.6103 831.1562 203.4505 827.9464 203.5977 827.9464C204.0392 827.9465 202.1984 837.0412 200.726 842.2571C198.37 850.6829 191.9665 859.1752 184.0181 864.4573C181.6629 866.062 179.6022 867.3993 179.455 867.3992C179.3814 867.3992 180.0441 864.3231 181.0012 860.6451ZM34.1144 838.5598C27.1234 836.8203 21.9722 834.3453 14.6872 829.1284C7.4758 824.0451 7.991 823.4433 18.9561 824.5146C28.5229 825.4519 36.029 827.3252 42.2104 830.3353C47.8767 833.0777 55.4561 837.9604 54.1315 837.9603C53.5427 837.9602 47.6555 836.2877 40.9589 834.2807C34.2623 832.2068 28.3751 830.668 27.9335 830.8017C26.8296 831.136 35.1451 834.9488 43.3135 837.7584C46.9193 839.0294 50.0836 840.2335 50.3043 840.4341C51.1138 841.2368 39.2656 839.8978 34.1144 838.5598ZM86.8799 836.5597C77.0928 832.078 68.6305 825.6572 63.5533 818.9692C62.744 817.8769 61.9346 816.7845 61.1252 815.6921C61.8366 815.8482 62.548 816.0043 63.2593 816.1605C67.3068 817.0971 76.3582 820.6425 80.4791 822.9166C84.0848 824.9233 90.781 830.6752 94.828 835.2231C96.6676 837.2964 96.2261 837.0289 84.5994 829.5376C79.3012 826.1265 74.6652 823.5178 74.2972 823.7185C73.414 824.2534 78.7858 828.7345 87.0274 834.4198C93.8709 839.1017 93.7973 839.7036 86.8799 836.5597ZM163.6383 819.2483C156.868 817.5087 141.0466 810.7527 142.0034 809.9503C143.1074 809.0142 149.4364 807.878 155.4709 807.4106C163.2717 806.8765 170.0421 808.081 183.5089 812.3625C187.311 813.589 191.1132 814.8154 194.9152 816.0419C192.3396 815.9302 189.7638 815.8184 187.1881 815.7067C182.6254 815.5055 175.1192 814.5015 168.7904 813.2302C162.9768 812.0927 157.4575 811.2895 156.648 811.3563C152.3796 811.9577 182.8458 819.2505 189.5426 819.2513C192.7807 819.2516 191.8239 819.7865 187.114 820.5216C181.3737 821.4571 170.0406 820.8539 163.6383 819.2483Z" style=""/><path fill="rgb(0, 0, 0)" stroke="none" fill-opacity="1" stroke-width="1" stroke-opacity="1" id="tSvg96eaebe8ae" title="Path 28" d="M1016.5933 111.6253C996.6706 113.9259 980.6004 118.3269 962.659 126.5287C934.2609 139.4317 911.9167 156.8357 891.1135 182.5416C853.6897 228.8522 830.575 292.9668 828.7038 356.4814C828.4836 363.4163 828.2635 370.3512 828.0433 377.2861C827.1628 375.3524 826.2822 373.4186 825.4017 371.4848C820.0082 359.4821 808.0106 328.775 797.5539 300.0685C773.7788 234.6535 757.8187 205.2468 733.9335 182.8416C711.0389 161.3367 685.7228 150.7343 653.8025 149.334C624.1936 148.0337 594.8049 156.7357 575.3225 172.6393C546.7043 196.0447 536.0275 233.5532 548.6856 266.2607C552.6481 276.363 557.8214 283.9648 565.9666 291.9666C586.6598 312.0712 620.5613 317.3724 648.9594 304.8696C658.4254 300.7686 668.1116 291.7666 673.0647 282.5645C676.3668 276.6631 677.0273 274.2626 677.3575 266.8609C677.6877 260.4594 677.3575 256.7586 675.9266 252.6576C673.6151 246.1561 666.7907 238.4544 661.3973 236.4539C656.3341 234.4534 649.6198 234.6535 647.6386 236.754C645.8774 238.5544 642.3552 244.4557 642.3552 245.556C642.3552 245.8561 644.9969 247.1564 648.1889 248.4567C658.8657 252.7576 662.7182 259.3591 661.9477 272.0621C660.847 288.9659 649.84 299.8684 629.1468 304.6695C609.3342 309.2706 582.367 300.4686 568.9385 285.065C562.9947 278.2635 557.161 267.661 554.6294 259.0591C552.2078 250.8572 551.8776 227.2518 554.1891 219.0499C556.1704 211.8483 564.0954 197.8451 569.819 191.5436C581.3764 178.8407 602.8401 167.038 620.8915 163.4372C632.9992 161.0366 651.1608 161.2367 662.2779 163.8373C683.1912 168.9384 703.334 182.0414 717.6431 199.9455C723.697 207.4473 723.697 208.2474 720.5049 230.2525C713.1302 281.4642 697.7204 334.5764 678.128 376.1859C674.1654 384.5878 670.7533 391.5894 670.5331 391.7895C670.313 391.9895 667.0109 390.3891 663.1584 388.2887C647.3083 379.6867 627.0555 372.7851 611.2054 370.6846C605.922 369.8844 601.4091 369.1843 601.189 368.9842C601.0789 368.7842 599.538 366.2836 597.8869 363.583C590.8424 352.2804 577.4139 343.1783 563.1048 340.0776C555.1797 338.2772 536.688 338.2772 528.9831 339.9776C520.2875 341.878 506.4187 348.1795 498.9339 353.5807C487.9269 361.4825 478.0206 375.6858 472.6272 391.0893C470.5359 397.3907 470.0956 400.6915 470.0956 411.594C470.0956 427.1976 471.7466 433.499 479.1213 447.1021C488.6974 464.8062 507.4093 478.6093 529.2032 484.1106C567.3975 493.6128 609.004 483.0103 639.0531 456.1042C650.6104 445.7018 667.3411 424.797 674.8259 411.0939C675.9266 409.1934 676.9172 407.393 677.1373 407.193C677.6877 406.5929 703.7743 424.597 732.0623 445.1017C763.7624 468.1069 799.5352 493.4127 808.8912 499.5141C812.9637 502.1147 816.2658 504.7153 816.2658 505.2154C816.2658 505.6155 813.404 507.816 809.8818 510.0165C807.7538 511.3168 805.6257 512.6171 803.4977 513.9174C800.9294 512.4171 798.3611 510.9167 795.7928 509.4164C772.6781 495.9133 745.1606 485.4109 722.156 481.51C707.6267 479.0094 683.9617 479.2095 672.9547 481.9101C657.4348 485.711 648.0788 491.9124 642.6854 502.0147C640.0437 506.8158 639.6034 508.8163 639.6034 516.1179C639.6034 523.2195 640.0437 525.5201 642.4653 530.1211C648.0788 541.1236 658.6456 548.9254 674.0554 553.5265C706.6361 563.3287 748.4627 556.1271 794.2518 532.8217C798.8381 530.5212 803.4243 528.2207 808.0106 525.9202C810.3954 528.2207 812.7803 530.5212 815.1651 532.8217C829.034 546.3248 836.1885 561.5283 836.4087 577.632C836.6288 589.4347 834.3173 595.5361 827.8232 601.0374C819.7881 607.7389 809.9919 608.7391 803.1675 603.5379C797.4439 599.237 797.3338 590.935 802.8373 584.9337C803.7912 583.9001 804.7452 582.8665 805.6991 581.833C804.6718 581.0661 803.6445 580.2993 802.6172 579.5324C798.9849 576.6318 797.0036 576.5318 792.3807 579.1323C783.6851 583.9334 783.465 595.8362 791.8303 604.3381C797.5539 610.1394 802.9474 612.1399 813.1839 612.1399C832.9965 612.1399 845.3243 602.4377 848.4063 584.2335C851.3782 567.2296 840.5913 544.1243 822.4298 528.3207C818.4672 524.8199 815.1651 521.8192 815.1651 521.6192C815.1651 521.4191 818.3572 519.2186 822.3197 516.7181C824.7046 515.2177 827.0894 513.7174 829.4743 512.217C832.8864 514.1508 836.2986 516.0846 839.7108 518.0184C883.6287 543.2241 928.3171 556.2271 970.9142 556.2271C1018.1343 556.3271 1057.9796 538.6231 1080.7641 507.4159C1087.1482 498.6139 1090.01 493.0126 1093.3121 482.1101C1096.7243 470.7075 1096.6142 470.4075 1091.2208 474.0083C1087.4784 476.5089 1086.2676 478.2092 1084.2864 483.8105C1077.7922 502.2147 1066.0148 516.1179 1046.8626 527.8206C1038.2771 533.1218 1033.434 535.2223 1021.8767 538.9231C981.1508 552.0261 933.3804 546.6249 880.6568 523.1195C872.1814 519.3187 860.0737 513.4173 853.7997 510.0165C849.9473 507.9494 846.0948 505.8822 842.2424 503.8151C843.3431 503.1149 844.4438 502.4148 845.5445 501.7146C847.3056 500.6144 858.0925 492.8126 869.6498 484.6107C901.5701 461.6054 909.4952 456.1042 910.3757 456.1042C910.816 456.1042 914.6685 459.0048 918.9612 462.6057C937.453 478.2092 963.5396 488.7116 992.9283 492.2125C1025.9493 496.1133 1065.9047 484.4107 1090.2302 463.7059C1096.8344 458.0046 1108.0615 445.3017 1113.3449 437.4999C1117.9678 430.5983 1126.2231 411.2939 1128.3144 402.5919C1129.195 398.7911 1130.4057 390.4892 1131.0661 384.2877C1132.387 369.7844 1134.8085 365.5835 1147.3565 355.1811C1156.8225 347.2793 1164.6375 338.9774 1167.8295 333.2761C1168.8202 331.4757 1171.5719 325.0742 1173.9935 319.0728C1178.8365 306.87 1181.8084 301.0687 1185.7709 296.2676C1187.2019 294.5672 1188.0824 292.5667 1187.7522 292.0666C1185.881 289.366 1169.2604 292.5667 1158.3635 297.7679C1140.0919 306.4699 1128.9748 321.4734 1124.9022 342.5782C1124.6821 343.9118 1124.4619 345.2455 1124.2418 346.5791C1123.5814 344.9121 1122.921 343.245 1122.2605 341.578C1119.3987 333.8762 1114.2254 325.1742 1108.6119 318.4727C1105.8601 315.0719 1103.5486 311.6711 1103.5486 310.7709C1103.5486 309.9707 1102.558 308.1703 1101.2372 306.67C1096.6142 301.2687 1087.0381 304.7695 1087.0381 311.7711C1087.0381 316.1722 1091.4409 319.1728 1097.1646 318.8728C1102.558 318.5727 1104.9795 320.9733 1111.8039 333.6762C1117.7477 344.3786 1121.9303 360.0822 1122.8109 374.0854C1122.9943 377.2528 1123.1778 380.4202 1123.3612 383.5876C1122.8109 381.7538 1122.2605 379.9201 1121.7102 378.0863C1118.7383 368.5842 1114.4456 361.8826 1106.9608 354.981C1096.8344 345.7789 1080.9843 339.0774 1069.0967 339.0774C1067.7392 339.0774 1066.3817 339.0774 1065.0241 339.0774C1065.9414 340.7778 1066.8586 342.4782 1067.7759 344.1786C1069.4269 346.9792 1072.1787 353.1806 1073.9398 357.8817C1080.544 374.9856 1084.2864 380.4869 1096.9444 392.0895C1110.373 404.1923 1112.9046 408.4933 1112.1341 417.4953C1111.5837 423.4967 1105.1997 436.5997 1099.0358 444.1014C1097.825 445.6018 1096.6142 447.1021 1095.4035 448.6025C1094.9265 446.4353 1094.4495 444.2681 1093.9725 442.101C1090.5604 426.6975 1078.4527 411.8941 1063.8134 405.3926C1051.4855 399.7913 1044.441 398.591 1026.4996 398.691C1012.3006 398.7911 1009.1085 399.0911 997.7713 401.8918C982.8018 405.4926 967.5021 411.394 948.0197 421.0962C927.8769 430.9984 918.631 436.6997 884.7294 460.0051C847.0855 485.711 831.4555 496.1133 830.2447 496.1133C828.4836 496.1133 800.3057 477.8092 766.7343 454.8039C738.8866 435.5995 694.3083 406.0927 684.4019 400.0914C683.5581 399.5912 682.7142 399.0911 681.8703 398.591C683.6681 394.9235 685.466 391.256 687.2638 387.5885C704.5448 352.5805 721.9358 292.9668 728.6501 245.556C729.6407 239.0545 730.4112 231.5528 730.4112 229.0522C730.4112 220.6503 731.9522 221.4505 737.896 232.7531C746.7016 249.6569 751.7648 261.9597 765.6336 300.0685C782.0341 344.7787 788.3081 360.5823 797.1137 379.5867C808.7811 404.4924 821.4391 422.8966 834.9778 434.3992C842.1323 440.6006 851.8185 446.1019 853.1393 444.9016C854.7904 443.4013 853.6897 439.1003 849.507 430.5983C840.7014 412.5942 836.8489 392.3896 836.8489 364.5832C836.959 303.8693 860.8442 237.3541 898.8184 191.6436C929.638 154.5352 967.0618 132.6301 1010.5395 126.3287C1025.509 124.2282 1053.0265 125.0284 1065.9047 127.9291C1083.5159 131.93 1098.7056 139.8318 1110.9233 151.2344C1119.1786 158.9362 1123.4713 165.0376 1127.8741 175.4399C1136.4596 195.6446 1136.4596 214.0488 1127.764 233.6533C1125.0123 240.0547 1117.8577 251.4573 1117.1973 250.7572C1116.9772 250.6572 1117.6376 247.8565 1118.5182 244.5558C1123.3612 225.7515 1117.4175 207.2472 1102.1177 193.6441C1092.8718 185.3422 1083.1857 180.3411 1068.8766 176.5402C1055.338 172.8393 1032.0031 171.9391 1015.3825 174.5397C993.3685 177.8405 973.8861 185.0421 953.7433 197.1449C938.9939 206.147 917.09 226.2516 906.6333 240.4548C889.2423 264.2603 877.9051 289.8661 872.7318 317.0724C870.5304 329.2752 869.6498 359.282 871.1908 372.5851C873.6123 392.6897 880.6568 413.5945 890.343 429.3981C897.1673 440.2005 895.9566 439.9005 906.083 433.399C911.0361 430.1983 915.9893 427.0975 917.09 426.4974C918.9612 425.4972 919.0713 425.0971 917.6403 421.9964C903.4413 390.6892 899.1486 355.1811 904.9823 317.1724C913.3476 261.6597 948.57 210.748 991.7175 191.1435C1019.4551 178.6407 1046.6424 176.8403 1069.0967 186.0424C1087.9187 193.8442 1098.1552 209.1477 1098.1552 229.6523C1098.1552 247.3564 1089.8999 261.2596 1076.0311 266.9609C1068.6564 270.0616 1055.338 269.8616 1047.7431 266.6608C1029.5816 258.9591 1023.0874 241.9552 1034.5347 231.9529C1035.452 231.1527 1036.3692 230.3525 1037.2865 229.5523C1036.5894 228.1187 1035.8923 226.685 1035.1951 225.2513C1033.434 221.6505 1032.7736 221.0504 1029.9118 221.0504C1021.5465 221.0504 1014.502 232.453 1015.8228 243.8556C1017.8041 260.8595 1033.8743 274.4626 1057.2091 278.8636C1067.5557 280.764 1078.4527 279.7638 1091.3309 275.7629C1122.1505 265.9607 1143.2839 235.2536 1143.2839 200.1456C1143.1738 183.8419 1140.0919 172.3392 1131.9467 157.8359C1119.1786 135.2307 1096.0639 120.1273 1063.9234 113.4257C1056.8789 111.9254 1024.5184 110.7251 1016.5933 111.6253ZM1175.8646 299.2683C1172.1223 307.1701 1168.2698 315.9721 1165.8483 322.2735C1161.7757 332.4759 1158.4736 336.7769 1145.8155 348.0795C1135.7992 356.9815 1135.2488 357.3816 1135.9092 354.2809C1137.6703 345.1788 1147.0263 328.775 1156.6024 317.9726C1164.4174 309.2706 1160.2347 310.7709 1150.4385 320.1731C1143.8343 326.4745 1140.7523 330.5754 1136.5696 338.4773C1130.7359 349.2797 1130.0755 349.1797 1132.8273 337.7771C1137.3401 319.5729 1149.9982 305.7698 1167.7195 299.9684C1174.5438 297.7679 1176.6351 297.5679 1175.8646 299.2683ZM566.4069 348.1795C574.3319 351.5803 580.0556 356.1813 584.1281 362.4828C588.0907 368.8842 588.0907 370.0845 584.2382 370.0845C579.9455 370.0845 569.9291 372.8851 565.3062 375.3857C553.5287 381.5871 547.0345 393.3898 549.8964 403.092C554.7395 419.5958 581.5965 422.0964 594.915 407.393C600.3084 401.4917 602.73 394.3901 602.73 384.4878C602.73 381.6538 602.73 378.8198 602.73 375.9858C604.1242 376.1859 605.5184 376.3859 606.9126 376.586C614.0672 377.6862 627.1655 381.087 634.6503 383.7876C642.7955 386.6883 658.2053 394.29 662.8282 397.5908C663.8189 398.3243 664.8095 399.0578 665.8001 399.7913C663.7088 402.992 661.6175 406.1928 659.5261 409.3935C629.8072 455.404 589.6317 478.8094 546.8144 475.1085C528.9831 473.6082 515.1142 467.9069 503.0065 457.1044C491.9995 447.2021 485.9457 435.4995 483.6342 419.3958C482.2033 409.2935 483.7443 395.3903 487.2665 385.7881C492.4398 371.4848 505.318 357.6817 519.1868 351.2802C530.1938 346.179 535.6973 345.0788 548.7957 345.3788C558.4818 345.5789 561.3437 346.079 566.4069 348.1795ZM1088.0288 349.6798C1102.9983 356.4814 1112.5744 367.1838 1116.2067 381.187C1118.8484 391.4894 1118.0779 392.0895 1113.4549 383.5876C1109.0521 375.3857 1101.4573 366.3836 1094.9632 361.4825C1089.2395 357.2816 1089.5697 359.382 1095.7337 366.2836C1102.0077 373.2852 1108.0615 383.2875 1111.3636 391.7895C1112.4643 394.8902 1113.4549 397.6908 1113.4549 398.0909C1113.4549 399.2912 1093.5323 380.887 1090.3402 376.586C1086.5978 371.5848 1084.0662 366.4837 1079.3332 354.4809C1075.4808 344.3786 1075.9211 344.1786 1088.0288 349.6798ZM589.5216 383.3875C589.5216 399.6913 581.8167 410.0937 569.819 410.0937C560.353 410.0937 555.7301 405.1925 556.7207 396.2905C557.8214 385.588 571.1399 376.3859 585.9993 376.1859C587.1734 376.1525 588.3475 376.1192 589.5216 376.0859C589.5216 378.5198 589.5216 380.9536 589.5216 383.3875ZM1046.8626 406.5929C1057.4293 409.0934 1064.5838 412.5942 1071.5183 418.5956C1075.0405 421.5963 1079.2232 426.2974 1080.7641 428.898C1084.2864 434.7993 1087.0381 444.7016 1087.0381 451.8032C1087.0381 456.7043 1086.818 457.2044 1082.4152 460.4052C1062.8227 475.0085 1038.7174 482.5102 1012.7409 482.3102C982.9119 482.0101 963.2093 473.9083 941.5255 453.4036C928.6474 441.0007 928.4272 442.401 943.5068 433.499C970.6941 417.3953 994.139 408.1932 1016.043 405.0925C1024.5184 403.9923 1038.3872 404.5924 1046.8626 406.5929ZM716.1021 486.6112C738.8866 489.8119 768.9357 501.0145 791.28 514.7176C793.0778 515.7845 794.8756 516.8514 796.6734 517.9183C794.1418 519.252 791.6102 520.5856 789.0786 521.9193C768.3854 532.9218 743.1793 542.524 725.8984 546.2248C717.8632 548.0252 712.1396 548.4253 700.142 548.5253C678.238 548.5253 667.4512 545.6247 656.9945 536.8227C646.3177 527.9206 643.1257 515.0177 648.9594 504.6153C657.8751 488.9117 683.5214 482.0101 716.1021 486.6112Z" style=""/><path fill="rgb(0, 0, 0)" stroke="none" fill-opacity="1" stroke-width="1" stroke-opacity="1" id="tSvg7a21170b29" title="Path 35" d="M282.9765 677.2548C266.466 679.5553 254.7986 684.6565 243.3513 694.3587C234.7659 701.5604 229.7026 708.9621 225.6301 719.6645C220.3467 733.9678 221.8877 754.1724 229.2624 767.5755C240.3794 787.7801 261.8431 799.6828 289.5807 800.8831C304.11 801.5833 313.7961 800.283 328.9858 795.882C332.7282 794.7817 336.4706 793.6815 340.213 792.5812C341.0935 787.9468 341.9741 783.3124 342.8546 778.678C345.3862 765.275 345.3862 764.7748 343.405 763.4745C340.5432 761.5741 339.7727 762.0742 336.9109 768.5757C332.6181 778.0779 325.9039 785.0795 317.2083 789.1804C309.7236 792.5812 309.3933 792.6812 296.295 792.6812C283.4168 792.6812 282.7564 792.5812 275.4918 789.3805C264.815 784.5794 256.8899 777.1777 251.6066 766.8753C238.7284 741.8696 243.2413 710.9625 262.1733 695.1589C278.9039 681.1557 308.9531 680.7556 324.3629 694.3587C328.9858 698.4597 334.7095 708.1619 335.9202 713.9632C336.4706 716.6638 337.131 717.1639 339.0022 716.9639C341.0935 716.6638 341.3137 715.9637 341.6439 709.6622C341.7539 705.7613 341.5338 698.6597 341.0935 693.7586C340.8 690.8246 340.5065 687.8906 340.213 684.9566C338.3785 684.2898 336.544 683.6229 334.7095 682.9561C321.6111 678.155 296.0749 675.3544 282.9765 677.2548Z" style=""/><path fill="rgb(0, 0, 0)" stroke="none" fill-opacity="1" stroke-width="1" stroke-opacity="1" id="tSvg4bca8273f3" title="Path 37" d="M684.8422 677.0548C681.7603 677.6549 681.0998 678.7552 672.9547 697.6595C668.1116 708.662 659.5261 728.2665 653.6924 741.1694C631.3482 791.2809 631.3482 791.2809 623.5332 793.1813C620.011 794.0816 619.2405 794.6817 619.2405 796.6821C619.2405 797.5157 619.2405 798.3492 619.2405 799.1827C626.0281 799.1827 632.8158 799.1827 639.6034 799.1827C646.3911 799.1827 653.1787 799.1827 659.9664 799.1827C659.9664 798.3492 659.9664 797.5157 659.9664 796.6821C659.9664 794.6817 659.306 794.1816 655.8938 793.5814C644.7767 791.881 644.1163 787.28 652.0414 768.1756C653.8025 764.008 655.5636 759.8404 657.3247 755.6728C664.7728 755.6728 672.2209 755.6728 679.6689 755.6728C687.117 755.6728 694.5651 755.6728 702.0132 755.6728C703.6275 759.3403 705.2419 763.0078 706.8562 766.6753C709.608 772.6767 712.5799 780.2784 713.5705 783.4791C715.2216 788.7803 715.2216 789.3805 713.5705 790.8808C712.6899 791.781 709.9382 792.7813 707.6267 793.0813C704.1045 793.5814 703.4441 794.0816 703.1139 796.4821C703.0038 797.3823 702.8937 798.2825 702.7836 799.1827C711.0389 799.1827 719.2941 799.1827 727.5494 799.1827C735.8413 799.1827 744.1333 799.1827 752.4252 799.1827C752.4252 798.3492 752.4252 797.5157 752.4252 796.6821C752.4252 794.7817 751.8749 794.1816 750.1138 794.1816C746.9217 794.1816 740.8679 790.6808 738.2262 787.28C736.0248 784.4794 719.4042 747.4709 700.0319 701.9605C694.0881 687.7572 688.9148 676.2546 688.5846 676.2546C688.2544 676.3546 686.6033 676.6547 684.8422 677.0548ZM687.1537 718.4642C690.8961 727.3663 695.2989 737.6686 696.8399 741.3695C697.7571 743.6367 698.6744 745.9039 699.5916 748.171C693.1709 748.171 686.7501 748.171 680.3294 748.171C669.7626 748.171 661.0671 747.871 661.0671 747.3709C660.957 746.0706 679.1186 702.1605 679.779 702.1605C680.1092 702.1605 683.4113 709.4622 687.1537 718.4642Z" style=""/><path fill="rgb(0, 0, 0)" stroke="none" fill-opacity="1" stroke-width="1" stroke-opacity="1" id="tSvg1774a2fed26" title="Path 38" d="M871.0807 677.1548C833.8771 682.456 809.1113 709.6622 811.0926 742.8698C811.863 755.1726 815.2752 764.7748 822.3197 774.177C838.3899 795.7819 867.3383 805.0841 901.35 799.6828C910.0455 798.2825 925.7855 793.8815 927.7668 792.2811C928.8675 791.2809 932.9401 771.5764 932.9401 767.0754C932.9401 764.1747 932.3897 763.2745 930.6286 762.8744C928.7574 762.3743 928.097 763.0745 926.7762 765.9751C921.9331 777.1777 914.3382 785.3796 904.6521 789.5805C896.2868 793.3814 881.7575 794.2816 871.7411 791.681C854.7904 787.28 842.6827 776.3775 836.4087 759.9737C834.2073 754.1724 833.5468 750.0715 833.1066 740.1692C832.226 720.1646 836.5187 707.9618 848.1862 697.0593C861.1744 685.0566 882.1978 681.0557 900.2493 687.1571C911.0361 690.8579 917.3101 697.4594 922.5935 710.5624C924.3546 715.0635 925.5654 716.6638 926.9963 716.6638C928.8675 716.6638 929.0876 715.6636 929.4178 706.1614C929.5279 700.3601 929.3078 693.2585 928.8675 690.2578C927.9869 684.9566 927.8769 684.8565 922.4834 682.9561C909.4952 678.255 883.8488 675.3544 871.0807 677.1548Z" style=""/><path fill="rgb(0, 0, 0)" stroke="none" fill-opacity="1" stroke-width="1" stroke-opacity="1" id="tSvg75461de5de" title="Path 36" d="M422.7655 676.8547C414.5102 677.955 405.5946 680.6556 398.5501 683.9563C387.7632 689.0575 375.5454 700.2601 370.2621 710.1623C360.7961 727.6663 360.5759 749.5714 369.7117 767.3754C378.4073 784.4794 396.6789 797.1823 416.9318 800.1829C446.1003 804.4839 471.6366 795.2818 486.7162 774.9772C495.0815 763.8746 498.3836 753.8723 498.6037 739.6691C498.7138 726.6661 497.2829 720.6647 491.3391 709.2621C483.304 693.9586 467.8942 682.556 449.6226 678.7552C441.9177 677.0548 427.9388 676.0545 422.7655 676.8547ZM447.6413 687.3571C465.4727 694.7588 476.3696 714.8634 476.4797 740.6693C476.4797 761.074 471.1963 774.7771 459.5289 784.5794C451.6038 791.2809 444.7795 793.5814 432.6718 793.5814C421.995 793.6815 415.0606 791.681 407.3557 786.3798C396.1285 778.678 389.5243 767.4755 386.3323 750.8717C381.159 723.7655 390.9552 696.9593 409.1168 688.5574C416.8217 685.0566 421.5547 684.2564 432.1214 684.4565C439.3861 684.6565 442.7982 685.3567 447.6413 687.3571Z" style=""/><path fill="rgb(0, 0, 0)" stroke="none" fill-opacity="1" stroke-width="1" stroke-opacity="1" id="tSvg115b4a819be" title="Path 39" d="M1006.3568 676.8547C1004.4856 677.1548 1002.8346 678.155 1002.2842 679.4553C1001.7339 680.6556 991.8276 703.2608 980.2702 729.6668C968.8229 756.0729 957.7058 780.5785 955.7246 784.1793C952.4225 790.1807 951.7621 790.7808 946.1485 792.8813C942.8464 794.0816 940.0946 795.4819 940.2047 796.082C940.3148 796.6821 940.4248 797.5824 940.5349 798.1825C940.5349 798.7826 948.2398 799.1827 961.0079 799.1827C967.7956 799.1827 974.5832 799.1827 981.3709 799.1827C981.3709 798.3492 981.3709 797.5157 981.3709 796.6821C981.3709 794.5817 980.7105 794.0816 976.748 793.5814C971.3545 792.7813 968.1625 790.1807 968.1625 786.5798C968.1625 784.0793 972.0149 772.8767 976.9681 760.874C977.7386 758.9735 978.5091 757.0731 979.2796 755.1726C986.5442 755.1726 993.8088 755.1726 1001.0734 755.1726C1017.2537 755.1726 1023.1975 755.4727 1023.968 756.3729C1027.05 759.9737 1035.5254 782.0788 1035.7455 786.6799C1035.8556 791.9811 1035.6354 792.0811 1027.3802 793.6815C1024.9586 794.0816 1024.2982 794.7817 1024.2982 796.6821C1024.2982 797.5157 1024.2982 798.3492 1024.2982 799.1827C1032.7369 799.1827 1041.1756 799.1827 1049.6143 799.1827C1058.053 799.1827 1066.4917 799.1827 1074.9304 799.1827C1074.9304 798.3825 1074.9304 797.5824 1074.9304 796.7822C1074.9304 794.7817 1074.27 794.2816 1070.5276 793.6815C1065.3543 792.8813 1059.4106 787.48 1055.9984 780.3784C1054.0171 776.1775 1034.6448 731.6673 1017.1437 690.8579C1013.6214 682.7561 1010.5395 676.2546 1010.0992 676.2546C1009.769 676.3546 1008.0078 676.6547 1006.3568 676.8547ZM1012.0804 726.066C1017.0336 737.7687 1020.9961 747.5709 1020.9961 747.771C1020.9961 747.971 1012.3006 748.171 1001.6238 748.171C983.5723 748.171 982.2515 748.071 983.0219 746.3706C983.4622 745.4704 984.8931 741.7696 986.324 738.1688C992.598 721.765 1001.6238 702.1605 1002.3943 703.3608C1002.8346 704.0609 1007.1273 714.2633 1012.0804 726.066Z" style=""/><path fill="rgb(0, 0, 0)" stroke="none" fill-opacity="1" stroke-width="1" stroke-opacity="1" id="tSvgfe5797511a" title="Path 40" d="M1352.0868 677.1548C1339.2086 679.1552 1328.0915 686.4569 1322.588 696.3592C1319.8362 701.4604 1319.2859 703.6609 1319.2859 709.5622C1319.2859 724.0655 1326.4405 731.8673 1349.9954 743.0699C1375.7518 755.4727 1382.0258 761.174 1382.0258 772.3766C1382.0258 779.2782 1380.2647 783.5791 1375.8619 787.48C1370.5785 792.3812 1366.8362 793.5814 1357.8104 793.5814C1348.0142 793.5814 1340.7496 790.7808 1334.3655 784.2793C1329.6325 779.5782 1327.8714 776.5775 1325.2297 768.8758C1323.4686 763.6746 1323.0283 763.1745 1320.0564 763.1745C1318.9557 763.1745 1317.855 763.1745 1316.7543 763.1745C1317.0478 768.0756 1317.3413 772.9767 1317.6348 777.8778C1318.0751 787.18 1318.8456 792.9813 1319.6161 793.3814C1322.6981 795.1818 1333.0447 798.1825 1341.41 799.7829C1353.0774 801.8833 1366.8362 801.2832 1375.6418 798.1825C1383.0164 795.6819 1393.1429 787.7801 1396.3349 782.1788C1403.4895 769.4759 1400.0773 752.172 1388.5199 742.7698C1384.0071 738.9689 1369.698 731.0671 1356.5996 725.0658C1341.6301 718.2642 1335.7964 711.9628 1335.7964 702.4606C1335.7964 691.9582 1345.3725 684.1564 1358.1406 684.1564C1372.0094 684.1564 1378.9439 689.6576 1386.3185 706.3615C1387.5293 709.3622 1389.8408 709.9623 1391.6019 707.8618C1392.2623 707.1617 1392.4825 701.6604 1392.1523 694.3587C1392.0055 690.2911 1391.8587 686.2235 1391.712 682.1559C1389.2537 681.4891 1386.7955 680.8223 1384.3373 680.1555C1370.9087 676.5546 1361.883 675.6544 1352.0868 677.1548Z" style=""/><path fill="rgb(0, 0, 0)" stroke="none" fill-opacity="1" stroke-width="1" stroke-opacity="1" id="tSvg1505dcf24d6" title="Path 41" d="M1454.4519 677.1548C1445.4262 678.5551 1436.2903 683.0561 1430.5667 688.7574C1424.2927 695.0589 1421.651 701.1603 1421.651 709.6622C1421.651 725.3658 1429.1358 733.0676 1456.8734 745.5704C1471.5128 752.272 1478.0069 756.873 1481.5291 763.2745C1486.4823 772.2766 1484.8312 781.0786 1477.2364 787.8801C1471.0725 793.1813 1463.0374 795.1818 1453.9015 793.3814C1441.1334 790.9808 1433.4285 784.2793 1427.7049 770.5762C1424.8431 763.8746 1424.2927 763.1745 1421.541 763.1745C1420.5503 763.1745 1419.5597 763.1745 1418.5691 763.1745C1418.7525 767.9089 1418.936 772.6433 1419.1194 777.3777C1419.4496 785.2795 1420.2201 792.2811 1420.7705 792.8813C1421.4309 793.5814 1426.7142 795.5819 1432.548 797.3823C1442.2341 800.283 1444.3255 800.583 1457.4238 800.583C1471.2926 800.6831 1471.953 800.583 1478.9975 797.5824C1493.967 791.0809 1501.0115 782.1788 1501.782 768.5757C1502.8827 750.0715 1495.9483 742.6698 1463.4776 727.5663C1450.5994 721.665 1442.5643 716.0637 1439.7025 711.0625C1438.822 709.4622 1438.1615 705.8614 1438.1615 702.8607C1438.1615 691.8582 1447.4074 684.1564 1460.836 684.1564C1472.9437 684.2564 1481.9694 690.4578 1486.5923 702.0605C1488.6837 707.1617 1489.4542 708.1619 1491.6556 708.1619C1494.2973 708.1619 1494.2973 708.1619 1494.2973 695.759C1494.2973 686.5569 1493.967 683.1562 1492.7563 682.256C1488.3535 678.8552 1463.9179 675.6544 1454.4519 677.1548Z" style=""/><path fill="rgb(0, 0, 0)" stroke="none" fill-opacity="1" stroke-width="1" stroke-opacity="1" id="tSvg41a8cc79b1" title="Path 42" d="M1575.1987 677.5549C1565.8428 679.1552 1555.6063 682.8561 1549.1121 686.957C1540.5267 692.3583 1531.0606 702.5606 1526.3276 711.4626C1520.604 722.1651 1519.1731 729.3667 1519.9436 743.3699C1520.604 757.0731 1523.1356 764.2747 1530.8405 774.7771C1544.159 792.8813 1565.6226 802.0834 1591.7092 800.8831C1629.2431 799.1827 1654.9995 773.6769 1654.9995 738.1688C1654.9995 719.9646 1648.9456 705.7613 1636.2876 694.0587C1621.5382 680.4555 1596.7725 673.754 1575.1987 677.5549ZM1600.4048 686.1568C1619.9972 691.6581 1632.9855 713.4631 1633.0956 740.7693C1633.0956 760.974 1627.7021 774.9772 1616.3649 784.5794C1608.1097 791.481 1601.6155 793.6815 1588.9575 793.5814C1576.5196 793.4814 1569.0348 790.7808 1560.4493 783.5791C1547.7913 772.9767 1541.5173 757.2731 1541.2972 736.1683C1541.1871 718.9644 1544.159 709.6622 1552.9646 698.4597C1562.4306 686.3569 1582.4633 681.1557 1600.4048 686.1568Z" style=""/><path fill="rgb(0, 0, 0)" stroke="none" fill-opacity="1" stroke-width="1" stroke-opacity="1" id="tSvge1526790d3" title="Path 43" d="M1214.7194 726.3661C1202.9419 753.3722 1191.4946 778.9781 1189.1831 783.1791C1185.1105 790.7808 1183.7897 791.881 1176.7452 793.7815C1174.5438 794.4816 1173.4431 795.3819 1173.4431 796.6821C1173.4431 798.5826 1174.3237 798.6826 1194.1363 798.9827C1200.9973 799.0494 1207.8583 799.116 1214.7194 799.1827C1214.7194 798.3825 1214.7194 797.5824 1214.7194 796.7822C1214.7194 794.6817 1214.0589 794.1816 1210.6468 793.5814C1208.3353 793.2814 1205.2533 792.2811 1203.8224 791.481C1201.511 790.1807 1201.2908 789.3805 1201.7311 784.8794C1202.0613 781.9788 1204.4829 774.277 1207.1245 767.6755C1208.7389 763.6746 1210.3533 759.6737 1211.9676 755.6728C1219.4891 755.6728 1227.0105 755.6728 1234.532 755.6728C1242.0534 755.6728 1249.5749 755.6728 1257.0963 755.6728C1258.6373 759.1736 1260.1783 762.6744 1261.7193 766.1752C1264.2509 771.9765 1267.1127 779.4782 1268.2134 782.979C1269.9745 788.8804 1269.9745 789.2805 1268.1033 791.1809C1267.0026 792.2811 1265.0214 793.1813 1263.5905 793.1813C1259.4078 793.1813 1257.6467 794.2816 1257.6467 796.7822C1257.6467 797.5824 1257.6467 798.3825 1257.6467 799.1827C1266.0854 799.1827 1274.5241 799.1827 1282.9628 799.1827C1291.4015 799.1827 1299.8402 799.1827 1308.2789 799.1827C1308.2789 798.3825 1308.2789 797.5824 1308.2789 796.7822C1308.2789 794.7817 1307.6185 794.3816 1303.9862 793.7815C1295.4007 792.5812 1293.1993 788.8804 1273.3867 743.57C1263.4804 721.0648 1254.2345 699.4599 1252.5835 695.659C1251.0425 691.7581 1248.5109 686.0568 1246.9699 682.8561C1244.2181 677.4549 1243.998 677.1548 1240.1455 677.1548C1238.8247 677.1548 1237.5039 677.1548 1236.183 677.1548C1229.0285 693.5585 1221.8739 709.9623 1214.7194 726.3661ZM1244.3282 723.6654C1249.0612 735.2681 1253.3539 745.4704 1253.7942 746.3706C1254.5647 748.071 1253.2439 748.171 1234.7521 748.171C1228.1479 748.171 1221.5437 748.171 1214.9395 748.171C1216.7373 743.8034 1218.5351 739.4357 1220.3329 735.068C1225.8364 721.4649 1233.3212 704.261 1234.2018 702.8607C1234.532 702.3606 1234.9723 702.1605 1235.1924 702.3606C1235.4125 702.5606 1239.4851 712.1628 1244.3282 723.6654Z" style=""/><path fill="rgb(0, 0, 0)" stroke="none" fill-opacity="1" stroke-width="1" stroke-opacity="1" id="tSvg7140a3c819" title="Path 44" d="M1.3073 680.8556C0.4268 682.9561 1.1973 683.5563 6.8108 684.9566C9.2324 685.6567 12.9747 687.1571 15.0661 688.4574C16.3135 689.2242 17.561 689.9911 18.8085 690.7579C18.9185 705.6947 19.0286 720.6314 19.1387 735.5682C19.2487 765.275 19.0286 781.7787 18.148 784.3793C16.7171 789.4805 12.7546 792.8813 7.141 793.6815C3.3987 794.2816 2.7382 794.6817 3.0684 796.4821C3.3987 798.6826 3.8389 798.6826 25.1925 798.9827C32.4205 799.0494 39.6484 799.116 46.8763 799.1827C46.8763 798.3492 46.8763 797.5157 46.8763 796.6821C46.8763 794.7817 46.326 794.1816 44.4548 794.1816C43.0239 794.1816 39.9419 793.2814 37.4103 792.2811C29.7054 789.0804 29.045 786.3798 28.4946 754.6725C28.2745 739.7691 28.4946 721.665 28.9349 714.3633C29.2284 709.9623 29.5219 705.5613 29.8155 701.1603C32.8607 704.5277 35.906 707.8952 38.9513 711.2626C44.0145 716.7639 63.717 738.7689 82.7591 760.1738C101.6912 781.4787 117.8715 799.3828 118.642 799.9829C119.4125 800.483 121.3937 800.7831 123.0448 800.483C124.0354 800.3163 125.026 800.1496 126.0167 799.9829C126.1267 782.2455 126.2368 764.5081 126.3469 746.7707C126.6771 686.0568 126.3469 688.6574 135.7028 685.6567C138.6747 684.6565 141.5365 683.7563 142.307 683.6563C142.9675 683.4562 143.2977 682.356 142.9675 681.2557C142.4171 679.2553 141.6466 679.1552 121.0635 679.1552C102.7919 679.1552 99.7099 679.3553 99.7099 680.6556C99.7099 681.4558 99.7099 682.456 99.5999 682.8561C99.5999 683.2562 101.6912 684.1564 104.3329 684.7565C111.4874 686.3569 113.6888 687.7572 115.0097 691.358C115.56 693.1585 116.4406 711.5627 116.7708 732.1674C117.5413 769.5759 117.5413 769.676 115.3399 767.6755C113.4687 765.9751 82.3189 731.3672 47.0965 691.8582C43.3541 687.6238 39.6117 683.3895 35.8693 679.1552C30.2191 679.1552 24.5688 679.1552 18.9185 679.1552C4.1691 679.1552 1.8577 679.3553 1.3073 680.8556Z" style=""/><path fill="rgb(0, 0, 0)" stroke="none" fill-opacity="1" stroke-width="1" stroke-opacity="1" id="tSvg14cfe1a03dc" title="Path 45" d="M156.0658 681.3557C156.2859 683.1562 157.3866 683.7563 161.0189 684.4565C163.9908 684.9566 166.5224 686.2569 167.9534 687.8572C170.0447 690.3578 170.1548 691.6581 170.1548 737.8687C170.1548 776.9776 169.8245 785.8797 168.5037 788.6803C166.8527 792.2811 163.4405 794.1816 158.4873 794.1816C156.1759 794.1816 155.7356 794.5817 156.0658 796.3821C156.396 798.6826 156.396 798.6826 181.492 798.9827C189.8206 799.0494 198.1492 799.116 206.4779 799.1827C206.4779 798.3825 206.4779 797.5824 206.4779 796.7822C206.4779 794.7817 205.8174 794.2816 201.6348 793.7815C195.9111 792.9813 191.6184 789.5805 190.6278 785.0795C189.5271 780.0783 189.8573 697.0593 191.0681 692.6583C192.2788 687.6572 195.2507 685.4567 201.5247 684.5565C206.5879 683.9563 207.0282 683.5563 205.8174 680.7556C205.2671 679.3553 201.965 679.1552 180.3913 679.1552C172.1727 679.1552 163.9541 679.1552 155.7356 679.1552C155.8457 679.8887 155.9557 680.6222 156.0658 681.3557Z" style=""/><path fill="rgb(0, 0, 0)" stroke="none" fill-opacity="1" stroke-width="1" stroke-opacity="1" id="tSvg10b9e77f111" title="Path 46" d="M514.0135 680.6556C513.133 682.656 514.4538 684.1564 517.2056 684.1564C520.7278 684.1564 526.6716 687.7572 527.8824 690.7579C528.5428 692.2582 528.9831 711.6627 528.9831 738.7689C528.9831 787.18 528.7629 789.5805 523.6997 792.0811C522.3789 792.6812 519.9573 793.1813 518.0861 793.1813C515.0042 793.1813 514.674 793.4814 514.674 796.182C514.674 797.1823 514.674 798.1825 514.674 799.1827C530.3773 799.1827 546.0806 799.1827 561.7839 799.1827C597.0063 799.1827 609.2241 798.8827 610.2147 797.9824C610.9852 797.2823 611.5356 795.1818 611.5356 793.1813C611.5356 791.2809 612.5262 784.7794 613.737 778.678C615.278 770.3761 615.4981 767.5755 614.5075 766.9753C612.3061 765.6751 610.4349 766.0751 609.6644 767.8756C607.463 773.977 603.5005 780.4784 599.9782 784.0793C594.0345 790.0806 587.9806 791.3809 569.0486 790.9808C554.1891 790.6808 554.079 790.6808 551.4373 787.8801C550.5201 786.9132 549.6028 785.9464 548.6856 784.9795C548.7957 769.2092 548.9057 753.4389 549.0158 737.6686C549.346 684.3564 548.9057 687.2571 558.0416 685.0566C560.5732 684.4565 563.1048 683.7563 563.8753 683.5563C564.5357 683.4562 564.8659 682.356 564.5357 681.2557C563.9853 679.2553 563.2148 679.1552 539.3296 679.1552C518.7465 679.1552 514.4538 679.3553 514.0135 680.6556Z" style=""/><path fill="rgb(0, 0, 0)" stroke="none" fill-opacity="1" stroke-width="1" stroke-opacity="1" id="tSvg66fc2d5555" title="Path 47" d="M1080.4339 681.5558C1080.4339 683.5563 1081.0943 683.9563 1084.9468 684.5565C1087.3683 684.9566 1090.5604 686.2569 1091.9913 687.5572C1094.3028 689.6576 1094.5229 691.058 1095.2934 704.261C1095.7337 712.1628 1095.8437 733.7677 1095.6236 752.172C1095.1833 790.1807 1094.9632 791.1809 1087.2583 793.0813C1085.0569 793.6815 1082.5253 794.1816 1081.8648 794.1816C1081.0943 794.1816 1080.4339 795.2818 1080.4339 796.6821C1080.4339 797.5157 1080.4339 798.3492 1080.4339 799.1827C1088.8726 799.1827 1097.3113 799.1827 1105.75 799.1827C1114.1887 799.1827 1122.6274 799.1827 1131.0661 799.1827C1131.0661 798.3825 1131.0661 797.5824 1131.0661 796.7822C1131.0661 794.7817 1130.4057 794.2816 1126.2231 793.7815C1120.4994 792.9813 1116.2067 789.5805 1115.2161 785.0795C1114.8858 783.2791 1114.5556 773.5769 1114.5556 763.4745C1114.5556 746.2706 1114.6657 744.9703 1116.5369 745.6705C1117.5275 746.0706 1122.0404 746.7707 1126.3331 747.3709C1132.6071 748.171 1136.1294 748.071 1142.6235 746.8707C1159.4642 743.67 1169.2604 737.5686 1175.3143 726.3661C1178.6164 720.3647 1178.9466 718.8643 1178.9466 711.1626C1178.8365 703.9609 1178.3963 701.8604 1175.9747 697.5595C1171.1316 689.1575 1162.7663 683.6563 1150.1083 680.6556C1145.2652 679.4553 1136.6797 679.1552 1112.1341 679.1552C1101.5674 679.1552 1091.0006 679.1552 1080.4339 679.1552C1080.4339 679.9554 1080.4339 680.7556 1080.4339 681.5558ZM1144.4947 688.9575C1154.401 692.8584 1159.5743 703.6609 1158.1434 716.9639C1156.8225 728.0664 1152.4197 734.5679 1143.7242 738.2688C1138.771 740.3693 1122.3706 740.9694 1117.4175 739.169C1116.4635 738.8356 1115.5096 738.5022 1114.5556 738.1688C1114.5556 729.8335 1114.5556 721.4983 1114.5556 713.163C1114.5556 683.7563 1113.3449 685.9568 1129.4151 686.4569C1136.3495 686.757 1140.8624 687.4571 1144.4947 688.9575Z" style=""/></svg>