<svg xmlns="http://www.w3.org/2000/svg" viewBox="355 0 525 515" fill="none">
  <path fill="#2A211C" stroke="none" fill-opacity="1" stroke-width="1" stroke-opacity="1" id="tSvg8e7f436f8a" title="Path 1" d="M775.9719 1.643C767.7094 2.8429 755.6078 6.7426 744.7581 11.7422C734.7429 16.4418 714.7961 31.7405 705.699 41.7396C687.2544 61.9379 675.4032 81.3363 663.1346 111.1338C651.7007 139.0315 645.0239 162.7295 639.766 194.1268C635.6765 218.6248 634.2576 233.6235 634.1742 253.9218C634.1464 259.8547 634.1185 265.7875 634.0907 271.7203C633.2839 269.1205 632.4772 266.5208 631.6704 263.921C630.4185 259.7213 623.6583 236.3233 616.7311 212.1253C596.2836 140.8313 593.0286 130.6322 584.1819 110.6338C567.5735 73.237 545.2063 50.1389 517.6647 41.9396C509.6526 39.5398 485.2824 39.5398 476.4357 41.8396C446.2233 49.9389 423.272 77.2367 417.2629 112.2337C414.8425 126.1325 415.3433 142.8311 418.5148 154.1302C424.0231 173.5286 435.0398 189.5272 448.4767 197.8265C457.7407 203.4261 477.5207 205.6259 487.4523 202.0262C495.0472 199.3264 501.7239 194.7268 507.1488 188.4273C516.2459 178.0282 520.2519 165.0293 519.0835 150.0305C518.1654 138.4315 513.7421 130.8322 505.5631 127.1325C502.0578 125.5326 501.6405 125.5326 498.8028 127.1325C495.381 129.1323 492.2095 133.8319 492.6268 136.3317C492.8772 138.0315 494.5464 139.3314 499.3036 141.5313C504.7285 144.031 508.3172 156.63 506.7315 167.3291C505.3961 175.5284 502.8089 181.3279 497.4675 187.7274C491.0411 195.5267 485.6162 197.9265 474.5161 197.9265C460.2445 198.0265 448.7271 192.327 438.4616 180.028C427.8622 167.2291 422.8547 151.3304 422.9381 130.6322C423.0216 99.4348 436.9593 74.2369 461.8303 60.0381C479.5237 50.0389 499.1367 49.639 516.3293 59.1382C529.0152 66.1376 540.6161 77.8366 548.1274 91.4355C549.6853 94.2352 551.2432 97.035 552.8011 99.8348C552.4951 104.5677 552.1891 109.3006 551.8831 114.0336C549.1289 153.8302 539.8649 203.626 527.7633 243.5227C524.4249 254.6218 514.4932 283.5193 513.7421 284.5192C513.5752 284.7192 507.6495 281.4195 500.6389 277.2199C487.6193 269.5205 477.6041 265.4209 466.7544 263.421C464.7235 263.0211 462.6927 262.6211 460.6618 262.2211C459.7716 260.2213 458.8814 258.2215 457.9911 256.2216C450.8971 240.223 437.2097 231.6237 418.9321 231.6237C399.4025 231.6237 383.4618 241.6228 371.7774 261.2212C356.8382 286.3191 355.6697 321.9161 369.0233 346.614C377.87 363.1126 390.9731 374.3117 407.7485 379.7113C417.5967 382.911 437.2932 383.011 447.7256 379.8112C474.2657 371.8119 494.0456 351.8136 513.0744 313.8168C515.9955 307.9173 518.7497 302.7177 519.167 302.2178C520.1685 301.0179 529.5159 309.5171 567.5735 346.1141C598.537 375.9116 610.6386 387.1106 620.8207 395.6099C622.6011 397.0765 624.3816 398.543 626.1621 400.0096C625.2162 400.9428 624.2703 401.8761 623.3244 402.8093C621.8222 404.3092 619.4018 406.309 618.0665 407.2089C615.4792 408.8088 615.4792 408.8088 610.1378 404.6092C604.2957 400.1095 588.188 390.5103 578.8405 386.1107C550.965 372.8118 526.1776 371.012 508.5676 381.0111C502.2247 384.6108 496.0487 390.7103 493.2945 396.1099C490.6238 401.2094 489.7057 409.6087 490.7907 417.5081C493.0441 433.7067 503.0593 445.1058 520.8361 451.8052C529.8498 455.1049 548.2943 455.1049 560.7298 451.8052C576.8375 447.5056 593.5294 439.3063 611.3063 427.1073C614.9785 424.6075 618.4003 422.6077 618.9845 422.6077C620.153 422.6077 626.9132 431.9069 630.9193 438.9063C634.8419 445.9057 639.0983 457.4047 640.684 465.3041C643.1878 478.003 640.6006 491.2019 634.2576 498.0013C630.7523 501.901 626.9967 503.1009 621.3214 502.301C616.8146 501.701 614.8116 499.7012 612.9755 494.1016C611.6401 489.802 611.6401 489.602 613.8101 484.1025C617.065 475.5032 616.4808 472.6035 611.3063 472.6035C605.7145 472.6035 601.0408 481.4027 602.1257 489.802C604.2957 505.7007 618.0665 513.3 634.4246 507.5005C638.9314 505.9007 644.9405 499.0012 647.5277 492.5018C655.4564 473.0034 648.1954 444.8058 629.9177 423.8076C628.0816 421.7411 626.2455 419.6746 624.4094 417.6081C626.0786 416.2749 627.7478 414.9416 629.417 413.6084C632.0877 411.4086 634.8419 409.3088 635.5095 409.0088C636.2607 408.7088 640.6006 411.3086 645.6081 415.1083C674.1513 436.6065 703.6125 448.9054 734.9933 452.7051C745.7596 453.905 754.8567 453.2051 767.7929 450.0054C797.5045 442.606 820.122 423.2076 831.7229 395.11C837.6485 380.6112 839.2342 372.6119 839.1508 356.1132C839.1508 334.1151 835.4786 321.0162 826.1311 309.0172C817.1175 297.5182 804.1812 291.6187 787.4893 291.6187C776.4727 291.6187 770.3801 292.9185 758.0281 297.8181C741.4197 304.4176 715.3803 321.1162 698.0207 336.4149C689.0071 344.3142 659.8797 370.912 648.5292 381.4111C636.1772 393.1101 637.6795 392.5102 631.5035 387.8106C628.5824 385.6108 606.716 366.3124 582.8466 344.9142C559.0606 323.516 535.9423 303.0177 531.519 299.218C527.0122 295.5183 523.3399 292.1186 523.3399 291.7186C523.3399 291.4187 524.6753 287.219 526.3445 282.6194C542.2852 237.5232 556.223 169.7289 559.0606 123.1328C559.2832 119.7997 559.5057 116.4667 559.7283 113.1336C560.6185 115.2335 561.5088 117.3333 562.399 119.4331C568.4081 133.4319 576.6706 159.4298 590.2745 207.6257C602.7934 251.922 606.716 264.4209 614.3108 283.4193C624.9936 309.8171 635.0922 326.4157 646.0254 335.315C651.033 339.4146 653.3699 340.2146 654.0376 338.1147C654.3714 337.2148 652.8691 330.8154 650.6992 323.8159C643.1878 298.918 641.0179 284.6192 641.0179 259.4214C640.9344 215.725 650.0315 167.6291 666.3061 125.5326C670.2287 115.4334 679.0754 97.7349 685.3349 87.5358C708.6201 49.839 731.1542 30.1406 764.7049 18.5416C773.802 15.3418 774.72 15.2419 789.1585 15.1419C806.1008 15.1419 812.2768 16.3418 824.1281 21.9413C846.4118 32.5404 860.6833 51.2388 866.0247 76.6367C867.1932 82.2362 867.6105 87.5358 867.527 97.6349C867.527 109.4339 867.1932 112.1337 865.2736 119.1331C864.1052 123.5328 861.7683 129.8322 860.0991 133.132C856.5104 140.3314 855.0081 142.2312 855.9261 138.6315C857.0111 134.0319 857.345 116.2334 856.4269 110.1339C851.3359 76.8367 818.119 58.0383 777.1404 65.2377C732.0722 73.137 690.8432 119.1331 674.5686 179.6281C668.7264 201.4262 666.0557 222.2245 666.0557 245.8225C666.1392 279.8196 672.8159 308.3172 686.6702 333.5151C687.0875 334.2151 703.6125 320.2162 703.6125 319.0164C703.6125 318.4164 702.5275 314.7167 701.1087 310.817C698.0207 302.0178 694.8493 289.1189 693.1801 277.9198C691.2605 265.8208 690.6763 237.7232 691.8447 221.9245C695.9342 169.2289 717.2999 118.4332 746.5942 91.7354C762.4515 77.3366 785.3194 68.9373 801.7609 71.6371C814.1964 73.537 822.3754 78.0366 828.8853 86.3359C833.6425 92.4354 836.647 98.6349 838.2327 105.6343C843.4072 128.1324 837.3147 150.9305 824.2115 158.2299C815.4483 163.1294 802.8459 160.6296 795.1676 152.6303C787.239 144.231 785.7367 133.2319 791.1616 124.0327C794.0826 119.2331 794.1661 116.3334 791.5789 113.2336C787.4059 108.234 779.5607 115.9334 778.2253 126.3325C776.3058 141.6312 781.3133 154.8301 792.33 163.7294C799.5075 169.4289 806.6016 171.8287 816.7002 171.8287C836.3132 172.0287 851.7532 161.8295 863.354 141.3313C879.2948 113.2336 879.4617 70.8372 863.6879 41.9396C853.172 22.5412 836.4801 9.2424 815.6152 3.5428C807.1858 1.243 786.2374 0.2431 775.9719 1.643ZM432.7863 240.323C435.7909 241.5229 438.2947 243.6227 441.9669 248.0223C446.891 254.0218 450.7301 260.9212 449.7286 262.1211C449.4783 262.5211 446.7241 263.421 443.7195 264.121C432.9533 266.8207 424.7742 274.5201 422.1035 284.7192C420.2674 291.4187 420.3509 295.1184 422.3539 300.2179C425.0246 306.7174 432.2856 311.617 439.5466 311.617C447.5587 311.617 456.4889 303.5177 459.9107 293.1185C461.4964 288.4189 461.9137 285.1192 461.9137 277.9198C461.9137 274.8534 461.9137 271.787 461.9137 268.7206C462.7761 268.9206 463.6386 269.1205 464.501 269.3205C475.4342 271.5203 486.8681 276.7199 499.0532 285.0192C511.8225 293.7185 511.0714 291.7186 505.4796 303.2177C488.2869 338.0148 468.1732 359.013 444.4707 366.8123C435.5405 369.7121 416.4283 369.9121 408.1658 367.2123C391.307 361.7128 378.7046 347.514 373.3632 328.2156C371.2767 320.8162 371.1098 318.7164 371.1098 304.1176C371.1098 289.1189 371.2767 287.619 373.4466 280.1196C376.2842 270.1205 379.6226 263.221 384.4633 256.7216C388.4693 251.422 397.1491 244.0226 402.7409 241.1229C409.7515 237.4232 424.5239 237.1232 432.7863 240.323ZM451.5647 277.3199C451.4813 290.2188 448.4767 298.4181 442.3007 302.5177C438.4616 305.1175 435.2067 305.1175 431.7014 302.6177C423.4389 296.5182 425.8592 281.3195 436.2082 274.0201C440.2142 271.2204 446.2233 268.8206 449.7286 268.7206C451.4813 268.6206 451.5647 268.9206 451.5647 277.3199ZM799.3406 299.218C816.6167 303.4177 827.6334 317.1165 831.7229 339.1147C833.9763 351.2136 833.2252 369.5121 829.9702 380.6112C823.4604 402.9093 811.2753 419.2079 793.415 429.7071C774.8035 440.6061 752.019 444.1058 730.0692 439.6062C708.7035 435.3066 688.9236 427.4072 669.2272 415.4083C659.0451 409.2088 646.86 400.2095 646.86 398.9096C646.86 398.4097 647.6112 397.5098 648.6127 396.8098C650.1984 395.6099 668.643 377.9114 688.3394 358.713C691.177 355.9466 694.0147 353.1801 696.8523 350.4137C698.9666 352.6469 701.0809 354.88 703.1952 357.1132C719.3864 374.0117 736.3286 383.011 757.0266 385.8107C764.8718 386.8107 767.459 386.8107 775.3042 385.3108C783.066 383.9109 785.9036 382.911 793.4984 378.5114C802.4286 373.4118 804.0978 370.912 796.503 374.0117C790.8277 376.3115 778.3922 377.9114 771.4651 377.2115C757.0266 375.6116 740.9189 367.7123 728.8173 356.2132C722.8082 350.4137 714.4622 339.0147 714.4622 336.5149C714.4622 334.2151 732.2391 320.4162 746.0099 312.0169C766.7079 299.218 783.3998 295.2183 799.3406 299.218ZM549.3793 381.1111C558.6433 383.011 574.1668 389.5104 585.5173 396.2099C595.282 401.9094 609.3032 412.2085 609.3032 413.6084C609.3032 414.9083 593.9467 425.0075 584.4323 430.007C567.0727 439.2063 552.3838 444.2058 539.1972 445.2058C522.088 446.6056 505.2292 439.0063 499.2201 427.2073C496.2156 421.4078 494.7133 412.3085 495.7983 406.109C499.1367 386.7107 522.9226 375.6116 549.3793 381.1111Z" style=""/>
</svg>