<svg xmlns="http://www.w3.org/2000/svg" viewBox="-105 -594 2684 2684" fill="currentColor" aria-label="NC">
<g transform="scale(1,-1) translate(0, -2091)">
<g transform="translate(0, 0)"><path d="M1149 1498H929V427Q832 605 357 1498H139Q82 1498 80 1443V55Q80 -1 139 -1L357 0Q357 119 357 1068L929 0H1149Q1204 -1 1204 55V1443Q1204 1499 1149 1498Z" fill="currentColor"/></g>
<g transform="translate(1284, 0)"><path d="M142 1498Q80 1498 80 1439V54Q80 0 142 0H1051Q1110 0 1110 54V109H357V1384H1110V1439Q1110 1498 1051 1498Z" fill="currentColor"/></g>
</g>
</svg>