<svg xmlns="http://www.w3.org/2000/svg" viewBox="0 0 16315 2048" fill="currentColor" aria-label="Nicola Capasso thin">
<g transform="scale(1,-1) translate(0, -483)">
<g transform="translate(0, 0) translate(642.0, 748.5087719298245) scale(0.88, 0.94) translate(-642.0, -748.5087719298245)"><path d="M1149 1498H929V427Q832 605 357 1498H139Q82 1498 80 1443V55Q80 -1 139 -1L357 0Q357 119 357 1068L929 0H1149Q1204 -1 1204 55V1443Q1204 1499 1149 1498Z" fill="currentColor"/></g><g transform="translate(1284, 0) translate(217.0, 749.0) scale(0.88, 0.94) translate(-217.0, -749.0)"><path d="M80 1498V0H294Q354 0 354 56V1444Q354 1498 294 1498Z" fill="currentColor"/></g><g transform="translate(1718, 0) translate(595.0, 749.0) scale(0.88, 0.94) translate(-595.0, -749.0)"><path d="M142 1498Q80 1498 80 1439V54Q80 0 142 0H1051Q1110 0 1110 54V109H357V1384H1110V1439Q1110 1498 1051 1498Z" fill="currentColor"/></g><g transform="translate(2908, 0) translate(642.0, 749.0) scale(0.88, 0.94) translate(-642.0, -749.0)"><path d="M140 1498Q80 1498 80 1442V56Q80 0 140 0H1144Q1204 0 1204 56V1442Q1204 1498 1144 1498ZM357 1387H927V110H357Z" fill="currentColor"/></g><g transform="translate(4192, 0) translate(565.4920634920635, 748.9748736247398) scale(0.88, 0.94) translate(-565.4920634920635, -748.9748736247398)"><path d="M142 1498Q81 1499 81 1443V55Q80 0 142 0H989Q1050 -2 1050 55V109H358V1498Z" fill="currentColor"/></g><g transform="translate(5322, 0) translate(643.0, 749.0) scale(0.88, 0.94) translate(-643.0, -749.0)"><path d="M142 1498Q80 1498 80 1439V54Q80 0 142 0H356V726H930V0H1144Q1206 0 1206 54V1439Q1206 1498 1144 1498ZM356 1384H930V834H356Z" fill="currentColor"/></g><g transform="translate(7408, 0) translate(595.0, 749.0) scale(0.88, 0.94) translate(-595.0, -749.0)"><path d="M142 1498Q80 1498 80 1439V54Q80 0 142 0H1051Q1110 0 1110 54V109H357V1384H1110V1439Q1110 1498 1051 1498Z" fill="currentColor"/></g><g transform="translate(8598, 0) translate(643.0, 749.0) scale(0.88, 0.94) translate(-643.0, -749.0)"><path d="M142 1498Q80 1498 80 1439V54Q80 0 142 0H356V726H930V0H1144Q1206 0 1206 54V1439Q1206 1498 1144 1498ZM356 1384H930V834H356Z" fill="currentColor"/></g><g transform="translate(9884, 0) translate(643.5, 749.5) scale(0.88, 0.94) translate(-643.5, -749.5)"><path d="M142 1498Q81 1498 81 1442V56Q80 1 142 1H357V488H1145Q1207 488 1206 544V1442Q1207 1498 1145 1498ZM357 1387H929V599H357Z" fill="currentColor"/></g><g transform="translate(11171, 0) translate(643.0, 749.0) scale(0.88, 0.94) translate(-643.0, -749.0)"><path d="M142 1498Q80 1498 80 1439V54Q80 0 142 0H356V726H930V0H1144Q1206 0 1206 54V1439Q1206 1498 1144 1498ZM356 1384H930V834H356Z" fill="currentColor"/></g><g transform="translate(12457, 0) translate(643.0079365079365, 748.9912280701755) scale(0.88, 0.94) translate(-643.0079365079365, -748.9912280701755)"><path d="M156 1498Q96 1498 96 1441V782Q96 727 156 727H929V111H80V55Q80 -1 141 0H1145Q1207 0 1206 55V782Q1207 837 1145 837H373V1387H1149V1441Q1149 1498 1083 1498Z" fill="currentColor"/></g><g transform="translate(13744, 0) translate(643.0079365079365, 748.9912280701755) scale(0.88, 0.94) translate(-643.0079365079365, -748.9912280701755)"><path d="M156 1498Q96 1498 96 1441V782Q96 727 156 727H929V111H80V55Q80 -1 141 0H1145Q1207 0 1206 55V782Q1207 837 1145 837H373V1387H1149V1441Q1149 1498 1083 1498Z" fill="currentColor"/></g><g transform="translate(15031, 0) translate(642.0, 749.0) scale(0.88, 0.94) translate(-642.0, -749.0)"><path d="M140 1498Q80 1498 80 1442V56Q80 0 140 0H1144Q1204 0 1204 56V1442Q1204 1498 1144 1498ZM357 1387H927V110H357Z" fill="currentColor"/></g>
</g>
</svg>